/* XPM */
static char *_6196ada3bf54b70fa96d191c60ac604wQfgdni5mfR0w7ju[] = {
/* columns rows colors chars-per-pixel */
"64 64 256 2 ",
"   c #010101",
".  c #0A0102",
"X  c #020902",
"o  c #02020A",
"O  c #0B010B",
"+  c #090A06",
"@  c #140001",
"#  c #1C0100",
"$  c #13010B",
"%  c #180705",
"&  c #0E0012",
"*  c #040713",
"=  c #140012",
"-  c #1D001B",
";  c #170316",
":  c #181816",
">  c #0F140E",
",  c #2C0001",
"<  c #240401",
"1  c #370100",
"2  c #23001B",
"3  c #2A1313",
"4  c #2E2614",
"5  c #1D0022",
"6  c #1E002E",
"7  c #171D26",
"8  c #260027",
"9  c #360839",
"0  c #340B2F",
"q  c #262627",
"w  c #342927",
"e  c #363033",
"r  c #1C2422",
"t  c #4D0C01",
"y  c #502C0C",
"u  c #6F3010",
"i  c #490935",
"p  c #4B3536",
"a  c #71261F",
"s  c #594A29",
"d  c #6D4C1C",
"f  c #3A0E43",
"g  c #3B3A42",
"h  c #450846",
"j  c #580956",
"k  c #591A5A",
"l  c #4F144D",
"z  c #69165B",
"x  c #552959",
"c  c #49374A",
"v  c #672B55",
"b  c #5A1767",
"n  c #6C196B",
"m  c #5D2866",
"M  c #662769",
"N  c #77256A",
"B  c #6A2872",
"V  c #772977",
"C  c #783474",
"Z  c #703469",
"A  c #56504C",
"S  c #674C55",
"D  c #6B6556",
"F  c #6F496E",
"G  c #746F6C",
"H  c #57635B",
"J  c #36442D",
"K  c #901700",
"L  c #93340D",
"P  c #CD3110",
"I  c #BA682A",
"U  c #9B5F19",
"Y  c #D07106",
"T  c #EB7632",
"R  c #DC6720",
"E  c #852679",
"W  c #863678",
"Q  c #892D6E",
"!  c #877456",
"~  c #8D4973",
"^  c #9D6363",
"/  c #F87149",
"(  c #D77E48",
")  c #64875F",
"_  c #D88A06",
"`  c #EB9B17",
"'  c #ED920E",
"]  c #D4AD15",
"[  c #E8AB02",
"{  c #F8A51A",
"}  c #FCB71D",
"|  c #EFAB0F",
" . c #CA8937",
".. c #F69D27",
"X. c #EB9331",
"o. c #F6A625",
"O. c #FDB826",
"+. c #FCB938",
"@. c #EEA731",
"#. c #FCC41A",
"$. c #F8C70E",
"%. c #FED626",
"&. c #FEC839",
"*. c #F8D132",
"=. c #FFED2F",
"-. c #898678",
";. c #AD9570",
":. c #B0A46A",
">. c #DA914B",
",. c #F8884A",
"<. c #F69947",
"1. c #FA9857",
"2. c #E99952",
"3. c #CEAD56",
"4. c #E8A647",
"5. c #F9A54C",
"6. c #FBB747",
"7. c #F9A559",
"8. c #FDB857",
"9. c #ECAC51",
"0. c #D29871",
"q. c #FE9B68",
"w. c #EC9B71",
"e. c #D5A872",
"r. c #FAA568",
"t. c #FEBA67",
"y. c #F7A876",
"u. c #FDB976",
"i. c #EAAB6D",
"p. c #FFC55B",
"a. c #F9CC4D",
"s. c #FFED4F",
"d. c #FEC379",
"f. c #FCCE6D",
"g. c #FEE769",
"h. c #FFEC78",
"j. c #DACD5D",
"k. c #792D82",
"l. c #7B4785",
"z. c #872B87",
"x. c #983996",
"c. c #8E328D",
"v. c #A43497",
"b. c #B03CA5",
"n. c #974896",
"m. c #955698",
"M. c #8E4B8C",
"N. c #A85799",
"B. c #A84A98",
"V. c #8F7589",
"C. c #AD6996",
"Z. c #9749A8",
"A. c #A756A5",
"S. c #B759A8",
"D. c #AD4FAD",
"F. c #A868A8",
"G. c #B967B6",
"H. c #BA78B9",
"J. c #B16FAE",
"K. c #9D6AAF",
"L. c #C54FB4",
"P. c #C86FB4",
"I. c #B970C7",
"U. c #AF5AC2",
"Y. c #C678C6",
"T. c #D978D7",
"R. c #CE71CD",
"E. c #E378D5",
"W. c #E978E6",
"Q. c #CC6DD8",
"!. c #8F8D8B",
"~. c #9AAD8D",
"^. c #ABB195",
"/. c #B6B4AC",
"(. c #AB93A2",
"). c #D18D84",
"_. c #CCB192",
"`. c #FCBC89",
"'. c #ECB08E",
"]. c #C58CBD",
"[. c #C9BDAD",
"{. c #F0B0B0",
"}. c #B8D5A6",
"|. c #AAC392",
" X c #FDC489",
".X c #FDD898",
"XX c #F1CA96",
"oX c #FFF290",
"OX c #D2D0B2",
"+X c #F8D5AE",
"@X c #D9E3B7",
"#X c #FFFDB8",
"$X c #F5EDB0",
"%X c #DAC98E",
"&X c #B8A0C3",
"*X c #CA87CA",
"=X c #D384C6",
"-X c #D787D5",
";X c #D998D9",
":X c #CD91CF",
">X c #E793D4",
",X c #D8A9D7",
"<X c #D1ACCF",
"1X c #E6A7DA",
"2X c #E5B5D8",
"3X c #F2B1D0",
"4X c #D688E4",
"5X c #E799E7",
"6X c #F59CE9",
"7X c #F69BF7",
"8X c #EA92EE",
"9X c #DBA9E3",
"0X c #DDB3E2",
"qX c #E8A8E8",
"wX c #F3A7EA",
"eX c #EAB6EA",
"rX c #EBA8F5",
"tX c #F7A5F8",
"yX c #FEB4FE",
"uX c #FDBCFD",
"iX c #F8B8F6",
"pX c #EFB9EF",
"aX c #D7CFD0",
"sX c #ECD2D3",
"dX c #FCFACA",
"fX c #E9EAD9",
"gX c #F5EBD6",
"hX c #FDFED4",
"jX c #FDFEDC",
"kX c #F6F6D9",
"lX c #ECEDD0",
"zX c #E9C6E7",
"xX c #F4CAEB",
"cX c #F8D9E8",
"vX c #FEC4FE",
"bX c #FFCBFF",
"nX c #F7C6F5",
"mX c #FFD3FF",
"MX c #FEDBFF",
"NX c #F9D7F5",
"BX c #EBD2EF",
"VX c #FEFEE4",
"CX c #FEFEEC",
"ZX c #F7F8E8",
"AX c #FEE3FF",
"SX c #FFECFE",
"DX c #F6E8F2",
"FX c #FEFFF2",
"GX c #FEFEF5",
"HX c #FDFDF4",
"JX c #FFF4FE",
"KX c #FFFEF9",
"LX c #FEFEFD",
"PX c #F6FBF8",
"IX c #F2ECE5",
"UX c #DEE7CF",
/* pixels */
"q A q q   LXKXGXHXCXCXCXCXCXHXHXPXPXCXVXCXjXVXjX@XhXjXjXgXjXjXdXhXkXX   X J ~.-.}.  HXCXVXCXJXKXHXHXCXVXCXCXCXCXVXjXhXdXhXjXHX  ",
"  * o o   PXKXGXHXCXCXCXCXCXCXCXHXGXCXgXZXVXVXjXjXjXkXVXkXjXgXhXkXkX  X X H ~.~./.X GXHXCXCXKXKXGXHXCXVXVXCXCXVXVXjXhXdXhXjXHX  ",
"X       + KXGXHXHXCXCXCXVXCXCXCXHXHXCXZXVXCXCXZXCXkXVXlXVXVXjXkXjXZX@ . > |.) }.}.~.CXHXHXHXHXGXHXCXVXVXVXVXCXCXjXjXhXdXjXjXCX  ",
"    X     KXHXHXHXCXCXCXCXCXCXCXCXHXZXHXHXCXIXZXCXCXkXjXVX@XjXhXjXlX. . > |.}.}.-.^.PXPXPXPXGXCXCXCXVXVXVXVXVXVXVXjXdXhXhXjXCX  ",
"          LXLXKXGXGXHXHXCXCXHXCXCXVXZXHXCXHXZXZXgXCXCXCXkXjXdX#XdXdX.   X ) }.}.OXkXPXKXCXHXCXHXCXCXCXjXVXVXVXCXVXhXdXdXhXjXCX  ",
"          LXLXKXKXHXHXHXHXHXHXCXCXCXHXHXKXHXCXCXCXIXZXkXhXdX%XXX%X$XUXUXX |.}.|.}.CXHXGXHXHXPXCXCXCXVXVXVXCXCXVXjXjXkXhXhXjXCX  ",
"          PXKXKXHXHXHXCXHXCXHXHXCXHXKXKXCXHXHXZXGXCXhX%X0.XXy # :.< +   X |.|.}.}.CXHXKXPXPXHXHXHXCXCXVXCXCXCXCXVXVXkXhXjXVXHX  ",
"          KXHXCXCXCXVXCXCXCXCXCXGXKXKXKXHXHXHXKXHX. XX+XU y D 4 y y ;.. %X$X@X$XOXCXHXKXPXHXHXGXHXCXCXCXCXCXCXCXCXVXkXjXVXCXHX  ",
"      G   GXCXCXjXjXjXjXVXVXVXHXKXPXLXKXKXHXGXGX3 _.:.:.@ _.! 4 3 < y ).y ! @XjX[.CXGXLXKXHXHXGXGXGXGXGXHXGXGXGXHXCXVXCXCXHXKX  ",
"      X   CXkXVXjXhXhXhXjXVXVXCXPXLXLXJXKXGXCXVX@ p -.% p s < < y ! a u y % # OXsX. KXHXGXGXHXJXLXKXKXKXKXKXKXKXKXHXHXHXHXKXPX  ",
"o o       fXkX@X@X@X@XUXlXkXZXZXZXKXLXLXKXHXCXA . @ % y < u e.0.'.0.w.'.y.0.# .   CXHXHXHXPXJXLXLXLXLXLXLXLXKXLXKXKX  X     +   ",
"LXLXLXLXGXHXVXCXVXVXVXCXCXCXCXHXGX.     .   w X @ 4 < :.XX.X`.y.y.y.q.,.u. X_.  X PXHXHXHXKXKXLX                X         : o   ",
"LXLXLXLXLXLXGXGXHXCXCXHXHXGXKXKXLX        X |.4 ;.%X3.oX#XdXXX X`.y.r.7.t.i.XX4 X PXPXGXGXPXLXLX                          o     ",
"LXLXLXLXLXPXLXKXGXGXGXKXPXKXPXLXLX  o X   X -.> e.3.h.oXoX1 < , w.y.r.u.t.d..Xs CXLXLXPXHXKXLXLX                          q     ",
"KXPXPXLXLXPXLXPXLXKXKXKXPXKXLXLXLXo       . d e.U oXs.=.@.U 7.9.t t  Xu.i.XXgXD KXLXLXJXHXLXPXLX                          o     ",
"GXKXKXKXLXLXLXLXLXLXLXLXLXLXLXLXLX        . |.:.d s.=.%.Y ..<.I u.w.>.>.U # < # !.(.D !.! H LXLX                        X       ",
"LXLXLXLXLXLXLXLXLXLXLXLXLXLXLXLXLX  o o X X hX< ] =.=.$.#._ t >.X.T 1.2.2.e.0.(.HXLXLXLXHXKXLXLX                        + o     ",
"LXLXLXLXLXLXLXLXLXLXLXPXLXLXLXLXKX  * 7 o . $X3.[ =.=.#.` ..5.>.X.T 5.u.1 e.:.CXLXLXKXHXHXHXLXLX                  X             ",
"LXLXLXLXLXLXLXLXLXLXLXLXLXLXLXLXLX  * X   +XU f.#.%.{ ' Y Y 1.<.,.5.oXoXU u +XCXKXLX+ PXfXPXLXPX                      +         ",
"LXLXLXLXLXLXLXLXLXLXLXLXLXLXLXLXLXo q :   dXL +.#.#._ Y X.t.7.T R .X2.4.p.e.dXCXJXLXLX! PXKXPXPX                X         :     ",
"LXLXLXLXLXLXLXLXLXLXLXLXLXLXLXLXJX.   X   d 1.Y %.$.` @.5.p.<.1.L L T K u.u.kXCXKXLXLXLXPXKXLXLX                              . ",
"LXLXLXLXLXLXLXLXLXLXLXPXLXLXLXLXKX        @ 1.t *.$.O.@.p.8.d.u.q./ R T u.XX+XHXPXLXLXLXKXPXKXA             o           KXGXGX  ",
"LXLXLXLXLXLXLXLXLXLXLXPXLXLXLXLXPXLXLXLXLXCXdX@.*.$.O.6.@.X.,.,.P / / ,. X+XVXKXLXLXPXPXaXaX:                         /.HXGXGX  ",
"LXLXLXLXLXLXLXLXLXLXLXLXLXLXLXLXPXPXLXLXPXVXdXh.} #.o.p...5.X.1.P / K ,.`.XX.       o                               . HXKXGX[.. ",
"LXLXLXLXLXLXLXLXLXPXPXLXLXLXLXLXPXX X fXfX@X#Xg.| { p.d.7.9.7.q.R / q.( +X@       o                                 . HXsX^.gX. ",
"LXLXLXLXLXLXLXLXLXLXPXJXLXLXLXLXLXLX!.D ~.OXj.g.&._ p.9.d.w.r.1./ / y. X+X        .                                   A : e A . ",
"LXLXLXLXLXLXLXLXLXLXLXPXLXLXLXKXCXHXCXPXLXCX#Xg.` +.X.2.t.u.`.r.q.`.`.0.  X o O . .                               +   HXHXHXCX. ",
"LXLXLXLXLXLXLXLXLXLXLXKXLXLXLXKXCXCXKXLXLXZX#X9.o...' 6.<.7.( q.'.w.`.# .   o     .                                 . KXHXHXCX. ",
"LXLXLXLXLXLXLXLXLXLXLXLXLXLXLXKXCXHXLXLXLXZX#Xa.o.` 6.8.8.>.I I I w.< IXJX  O o                                     : ZXKXHXHX  ",
"LXLXLXLXLXLXLXLXLXLXLXLXLXLXLXLXGXHXLXBXzXgXf.+.` { 6.8.5. .8.r.`.t cXw S JXO                                       !.KXsX/..   ",
"LXLXLXLXLXLXLXLXLXLXLXLXLXLXLXLXJXLX:XzXxX1 p.#._ ' +.@.<.t.d.I '.% @ BX& BXzXX   X         o     o                 D     w w   ",
"LXLXLXLXLXLXLXKXLXLXLXLXLXLXLXLXLXMXSX].pXsX7.@.+.{ ' ..<.7.X.8.e.# $ aXAXzXJXLX      o   o   o                   . fXZXaX.   X ",
"LXLXLXLXLXLXHXHXGXLXLXLXLXJXLXLXJXSXvXvXAX3X{.u 6.a.| _ { o.@.6.3.% . . MXMXnXzXLXJXAXJXLXPXLXLXLXLXLXPXLXLXLXLXKXGXOXkXgX      ",
"PXPXLXLXHXZXGXHXZXKXJXLXJXLXLXPXaX= *XqXqXuXMX{.i.6.g.] { Y o.6.i.# CX@ MXvXiXMXcXBXxXmXNXJXSXcXJXJXLXLXLXLXPXLXKXHX@XlXUX@ r   ",
"PXPXLXLXLXLXHXHXKXPXLXLXLXJXJXDXNXAXbX*XH.2 C.3X{. X9.g.` o.` 4.$XgXcX2 vX*X2 AXNXNXnXqX0XAXAXAXxX2 c . e LXLXJXKXHXA + ) -./.X ",
"LXLXLXLXPXp GXKXGXPXLXLXSXJXSXBXzXSXmXJ.6X3XSX# < 3. .h.p.@.X.3._.gX3XvX;XJ.2X<XMXMXuXR.-XbXAXzXnX=X<X# $   . X     X + > : A   ",
"KXKXJXaXKXHXHXGXGXLXSXbXnXF SXBXzXnXAXiXwX3X`.oXoX# < oXg.4.U '.S xXF :X5 F eXMXnXmXuXqXn.uXMXeXvXvX1XxX. .   : o o   . .   : . ",
"LXLXPXPXHX. ^ A KXLX2X2XiXqXeXSXnXBX0XAXtX3X'.i.j.g.% j.+.g.< # < % < 2 ; MXmXbX9XAXeXrXE 6XbXnXuXvXeXnXJX    X X   O   . . % . ",
"LXLXaXKXLXLXDXw   JXSXMXnX&Xm pXMXbXMXnXbXqX3X).u.g.=.%.%.#.s.=.s.oX@ @ F.9XnXbXpXeXMXqXz.8XmXnXA.wXqXMXJX    o     o o o . D   ",
"PXLXaXLXLXLXLXJXLXJXzX8 AXnXH.bXuXqXMXmXMXm.yX>X).t.*.=.} [ [ $.=.s.oX+ 2XiXiX;XqXiXmXiXx.v.qXvXY.-XuXAXBXJX    o   o o     ~.X ",
"LXKXHXPXKXHXHXGXLXF ,XrX-Xk.rX6 ].pXnXmXMX;XbX,X>Xw.f.a._ Y | | [ %.h.#X3XiXuXqXP.rXqXbXV 8XqXqXH.qXMX].mXJXO   X   o o     A X ",
"GXGXKX  IXHXHXGXLXF bXrX4XD.mXI.bXbXpXmXmXeXvXrX6X].1 a.{ { { ' | [ *.oXy 3XwXvXtXyX*X6XE 7X-Xl.8 tX5XwXuXxXSX$           . D X ",
"GX+   r LXKXKXPXJX2XnXMXbXQ.4X4X6 rXnXnXMXnX:XrXiX3Xu 4.a.O.{ } #.| $.a.$XS ,XyXrX8X7XD.k.7XwXY.5XbXW 0 J.eX3XsX.   X       OXO ",
"GXHXGXGXHXHXHXKXLXcXJ.vXuXtXx.T.R.;XyXmXnX,XvX4XrXP.0.p.@.&.O.O.O.#.[ *.oX@ i qXtXG.7X4XG.Y.rXM.j N E.6XiXAX0 3X$     X     D @ ",
"VXZXZXZXHXZXCXJXJXNXuXuX7X7Xk.k.B qX4XvXvXnXBXMX-XQ t I p._ +.&.&.o.*.] 9.#XVX= l.rX7XY.M 1XqXl z N L.Q P.W J.xXJXO   X X G 4   ",
"OXOX/.aXOXOX[.[.aXNXwX6X7XZ.tX4XC m.4X5XK.<X& ; W C.^ w.u.4.p.` O.&.&.@.6..XsXSXf 5 C =X8 2X,Xv j W B.W C C Z 3 DXo       D G   ",
"gXUXkXkX}.kXgXgX/.JXmXyX8XtXU.k.K.6 9X5 & o o $ - 0 # % < '.1.7.6.6.p.r. X'.1X<XAXJXSXNXO <X(.- j P.n G.m.bXMXJXSXO .   . w ~.. ",
"ZXZXZXUXZXZXfXIXIXSXzXuXrXD.k.b B 9 9X- &   $ . = = + . % ^ ^ '.2.4.X.u.'.cX>XqX0XzXSXJXJX= 5 ; v l 0 v C - Z mX<XSXO . . A 3 . ",
"IXCXZXZXZXZXZXUXDXSXMX*XvXtXZ.x.I.6 M.;X* * c l.+ X     = v C.a a `.r.w.L <XrXrXI.qXpXnXmXMXAXS # 3 sX# F 8 eXmXmX<X. .   : w @ ",
"KXGXfXCXZX!.!.HXo BXvXG.Y.k.Q.k.B B j m.6 (.& & + >   . O l l N C 1 u a 3 F.4X8X4XI.iXuX*XvXzXMXNXJXv # ~ AXpX].MXxXzX. q w w . ",
". 3 . r   .   . fXJXpXyXuXAX8Xk.*Xm 5 x o o o = O c   O & 5 h x h ,X$ $ ,XqXrXZ.rX4XQ.G.wX*XAXeXbXnXHXJXJXzX= ; - BXIXLX. : G . ",
": % + + :   + r   JXzX9XI.Z.c.U.B K.f 0 F o !.O V.. . o o O 2 i l 9 x 9XK.4XI.rXD.Z.Z.R.8Xz.rXvXqXvXnXNXNXAXMXAXS e   ; $ 4 w . ",
"X             X X PXMX;X9X4Xc.7XI.c.6 x x - & G X . o     + $ 9 9 m Z n n.I.Z.U.U.T.c.W.W.W.v.tXbX;XwXqXnX;X*XMXMXJXLXDX; @ @ . ",
"r             X X <XJX:XJ.qXyX7Xc.k.M.6 M F O X . .     o     = v 8 j j 8 C 4XU.Z.b.Q.Q.z.E.b.T.-XwX-X>XqXbX7XD.bXMXJXNXBXaX@ . ",
"g   o o     .   X e NXqXvXh uXM.I.m.V f m.m & ; e A (.o       O = <X8 h - Z k.V R.v.Q.v.E.v.L.E.P.-X>XtXn.6X7XE.n.qXMXmXnXSXO   ",
"o o : o         . O SXbXrXvXC c.*XY.j b b B & O (.2 c =   o     $ ; F 9Xm.8 j Y.V S.Q.b.L.L.E.v.T.8X7XS.wX6XL.T.R.yXH.vXC.:X$   ",
"7 &X* * o   X IXaXV.MX].MXl.6 bXN.V j D.b m ;   .   O & V.o . . $ ; m M M.V b B 8 m.N ].S.L.v.W.L.v.wXwX1XB.wXB.B.L.5XiXn.iXc . ",
"7 * q !.X X   HXw !.bXpXbXH.- H.n.n Z.V 6 x c * O & & * F ; $ F v M J.k.c.V I.m 9 8 2 Q Q E.v.L.b.E.B.>X3X3X~ >X=Xc.bXwX6Xm.. X ",
"* o * * o   fX: . ~ 2XvXA.V MXF.B N G.x 6 f m 5 8 f l.m m K.M Q C Y.V c.n.x.j B N 0 , z C.E L.L.b.v.wX6XN.6X>X6Xx.>X>X=XwX1X$   ",
"o * H o   X HXHXLXSXv vXC :Xk Z n *X,Xl 9 0 9 f B b l l m.k.n.P.V N N.S.j n B j i 2 1 0.{.^ ~ Q R.z.S.x.6X].P.3X>XB.z.vXH.1X@ . ",
"X   o 7 g X X LXLXJXAX3X9XbXm.M.B 8 ,X- O O 0 9 f k x l k B k j 2 8 i j A.8 8 8 ; % , +X`.{.a P.N W P.c.B.P.6XN.>X>X>XN.wX,XO   ",
"    o o   o   > LXLXSX(.pXk rXk.*XMXF 8 & = ; ; - - 5 6 m.H.5XtXm.N C.F.uX;XqXF.:X2X{.e. X.X'.1 N G.N P.v.v.v.6X>XB.=XP.1X<X&   ",
"    o o     o o   LXJXi ;X;Xz.7XuXM.8 AXzXMXAXbXmXMXiX:XbXvX7X7Xn.Y.H.uXrXG.F.rXtXS.{.^ oXi..X+XQ N N.Q Q P.Q B.Q >XS.].,X$ O   ",
"  X     +   o o o S HXi nXG.R.T.pX5 9X0XAXBXnXnXiXP.qXuXbX5XrXn.8XuXuXrXz.7XI.rX8X7X^ )..Xh..XXX< i i Q P.Q b.P.~ Q P.>XV.O     "
};
