/* XPM */
static char *_fe913a42d5d4143a287517fcece545aseK1imS1jaeHh69J[] = {
/* columns rows colors chars-per-pixel */
"64 64 256 2 ",
"   c #010101",
".  c #0B0201",
"X  c #020903",
"o  c #0A0A02",
"O  c #02030A",
"+  c #010A0B",
"@  c #0B0309",
"#  c #130200",
"$  c #1C0100",
"%  c #170903",
"&  c #020311",
"*  c #040C13",
"=  c #091818",
"-  c #161818",
";  c #14150B",
":  c #230100",
">  c #2B0000",
",  c #230903",
"<  c #320100",
"1  c #3A0200",
"2  c #281603",
"3  c #381600",
"4  c #271919",
"5  c #24241A",
"6  c #372514",
"7  c #0A1B25",
"8  c #101D2A",
"9  c #172428",
"0  c #172B36",
"q  c #0C2A32",
"w  c #252627",
"e  c #333332",
"r  c #1F2519",
"t  c #490400",
"y  c #570006",
"u  c #700B00",
"i  c #4E2F0D",
"p  c #6E320A",
"a  c #4C372B",
"s  c #4C1A3C",
"d  c #3C4938",
"f  c #64451B",
"g  c #454834",
"h  c #544B31",
"j  c #6D522D",
"k  c #766B1B",
"l  c #173144",
"z  c #283846",
"x  c #363E4D",
"c  c #4E3F46",
"v  c #2D4853",
"b  c #2F5665",
"n  c #1C4652",
"m  c #505650",
"M  c #655B4F",
"N  c #6E6F57",
"B  c #495C64",
"V  c #506572",
"C  c #70716D",
"Z  c #A70B04",
"A  c #B22E00",
"S  c #911100",
"D  c #CB1900",
"F  c #D71904",
"G  c #D90901",
"H  c #E90A04",
"J  c #F60201",
"K  c #FC0302",
"L  c #FE0A04",
"P  c #FD050B",
"I  c #FE0B0B",
"U  c #F40A03",
"Y  c #E61403",
"T  c #FF130B",
"R  c #F71603",
"E  c #E70A15",
"W  c #FF0D12",
"Q  c #F70317",
"!  c #FE1415",
"~  c #D12B02",
"^  c #EE300D",
"/  c #D71C34",
"(  c #D51527",
")  c #FC152A",
"_  c #DD243B",
"`  c #C7232E",
"'  c #FF3F32",
"]  c #AE550C",
"[  c #946119",
"{  c #F65412",
"}  c #D97B0B",
"|  c #F67807",
" . c #EF7310",
".. c #FE5B26",
"X. c #FF4938",
"o. c #D87B2C",
"O. c #D0792E",
"+. c #FE6627",
"@. c #E77826",
"#. c #FA7425",
"$. c #F9733A",
"%. c #D4421D",
"&. c #CF2948",
"*. c #E42B42",
"=. c #DC2653",
"-. c #8F714F",
";. c #927566",
":. c #B6604E",
">. c #FE774B",
",. c #F05567",
"<. c #FD696C",
"1. c #C7754E",
"2. c #758169",
"3. c #B6832D",
"4. c #DA8601",
"5. c #DC8516",
"6. c #E88606",
"7. c #FA9B08",
"8. c #E7851C",
"9. c #F78A15",
"0. c #FB9A19",
"q. c #EB9709",
"w. c #E8A703",
"e. c #F6A608",
"r. c #FEA315",
"t. c #FAA519",
"y. c #FCBB19",
"u. c #EBAF15",
"i. c #D28639",
"p. c #FC9A27",
"a. c #FD9A37",
"s. c #F28E30",
"d. c #FEA529",
"f. c #FBB929",
"g. c #FDA337",
"h. c #FDB638",
"j. c #EBAB2D",
"k. c #D9A102",
"l. c #FAC013",
"z. c #FAC726",
"x. c #FCCC34",
"c. c #A99651",
"v. c #898979",
"b. c #918A71",
"n. c #AE996F",
"m. c #AB9E61",
"M. c #D2924F",
"N. c #FC8545",
"B. c #FD9946",
"V. c #FD9958",
"C. c #F29553",
"Z. c #D4AC54",
"A. c #EBA648",
"S. c #FDA649",
"D. c #FEB948",
"F. c #FFA45B",
"G. c #FEA756",
"H. c #FAB958",
"J. c #EAB355",
"K. c #F69466",
"L. c #D5AE6C",
"P. c #FCA365",
"I. c #FBB966",
"U. c #FDBC79",
"Y. c #E9AF72",
"T. c #FBC647",
"R. c #FBD446",
"E. c #F7C854",
"W. c #FFE657",
"Q. c #D8C578",
"!. c #FCC66A",
"~. c #FEC778",
"^. c #FED67B",
"/. c #F3CF6B",
"(. c #FFE669",
"). c #FFEB79",
"_. c #FFF26F",
"`. c #677589",
"'. c #F0708A",
"]. c #A475A3",
"[. c #6B8D95",
"{. c #74A4AC",
"}. c #91968D",
"|. c #A79A82",
" X c #A4A697",
".X c #B6B393",
"XX c #91ABB6",
"oX c #B5BBA8",
"OX c #ACB4AE",
"+X c #A19BB4",
"@X c #D2B187",
"#X c #FBBD86",
"$X c #EDBB89",
"%X c #CAB4A5",
"&X c #F49F96",
"*X c #B7C5A9",
"=X c #BEC2B5",
"-X c #B4C29E",
";X c #D4C692",
":X c #EBC385",
">X c #FDD686",
",X c #FAC796",
"<X c #FCD898",
"1X c #EECD8E",
"2X c #FEEA88",
"3X c #FFF88A",
"4X c #FDE798",
"5X c #FFF697",
"6X c #C8CAA7",
"7X c #D5D7BD",
"8X c #CECFB8",
"9X c #F2D1AB",
"0X c #F9EAA9",
"qX c #FFF7A7",
"wX c #E7E7B9",
"eX c #FDE8B5",
"rX c #FEF9B7",
"tX c #91B8C7",
"yX c #F2B4EF",
"uX c #E5AAD8",
"iX c #96C9CD",
"pX c #BAD3DA",
"aX c #B2DCE2",
"sX c #B8E4EA",
"dX c #D7D8C4",
"fX c #D8D9D7",
"gX c #CACACA",
"hX c #E7DBCB",
"jX c #DBE6CF",
"kX c #E9E8C6",
"lX c #FEFDCC",
"zX c #F9F7C8",
"xX c #E9EBD9",
"cX c #FDFCD4",
"vX c #FEFDDC",
"bX c #F5F5D9",
"nX c #F0EECE",
"mX c #DBDCE1",
"MX c #F8D8F8",
"NX c #EAEAE6",
"BX c #FEFDE4",
"VX c #FDFDEC",
"CX c #F7F7E7",
"ZX c #E9FCFA",
"AX c #FEF5F4",
"SX c #F6FCF3",
"DX c #FEFFF5",
"FX c #FDFDF4",
"GX c #FEF5FD",
"HX c #F6FCFD",
"JX c #FEFFFA",
"KX c #FEFFFE",
"LX c #FEFEFD",
"PX c #F4F4F4",
"IX c #F3EBEE",
"UX c #C5E6EF",
/* pixels */
"vXzXlXwXzXlXlXrXbXbXNXDXFXVXxXFXSXSXNXDXAXJXKXLXLXLXGXLXKXPX}.BXVXBXVXBXFXVX  KXSXJXJXKXGXKXFXDXKXKXLXJXLXLXLXLXKXKXSXVXDXVXVXVX",
"BXnXlXlXlXwXrXlXcXbXFXJXFXCXVXFXNXSXVXVXxXGXJXKXPXSXJXGXDXFXg BXVXVXVXBXCXFX  PXDXDXKXKXLXLXJXAXJXJXJXHXKXLXKXKXJXJXAXFXFXFXVXVX",
"bXcXzXcXlXlXrXzXcXbXX   X o X X X X . . . . @   X X . |..   o FXVXCXBXBXVXVX  xXdXgXfXmXmXfXfXfXgXfXgXgX}.o X     X VXFXVXVXVXFX",
"BXvXvXcXwXcXlXlXkXBXX   v. XoXd d xX# FX  e LX  m b.N %XkX.   JXVXVXVXBXFXDX  r v M e e m 8 - 5 C w w 9 m w r 5 o X VXSXDXFXDXFX",
"BXBXvXkXcXlXlXzXcXBXX X 8XoXN v.d jX2.FXv.e DXv..X.X%X% ;Xh 4 FXVXVXBXBXDXAXX X         +             X       - - o SXJXPXFXDXCX",
"VXbXBXcXbXzXzXlXvXcXe X OX*X*Xd d 7XbXFXe ; BXvXcXrXvXzXzXb.N VXBXvXvXVXPXDXX     @         o           X     O     KXKXJXAXDXJX",
"CXVXxXBXvXcXwXcXvXvXdXX *X2.*X2.b.6XCXVXo 6XcXlX2 bXVXCXBXBXBXBXvXvXvXBXJXKX  X           X   X     X               KXAXDXVXVXVX",
" XbXbXvXnXcXvXlXkXBXbXX v.*X*X2.g g VXVXcXlX0XQ.j 9X# .X. BXdXzXvXvXvXBXDXLXX   O   .                         O     JXJXDXFXFXFX",
".X}.o BXBXnXvXcXvXBX8XX  X*X-X*X%XcXbXVXcXlX$X-.: -.: n.|.. b.o |.nXcXvXVXFXN X O O                               o JXJXJXJXAXJX",
"m oXX CXvXvXvXnXBXBXdX  N oX7X-XN kXbXvXlXqX:Xc.: -.i i $ $ $ 2 6 cXzX9XnXBX2.+     . . .     O                     JXKXJXJXJXAX",
"2 *XX CXBXBXbXvXvXBXdX  ; 2.jXjXo wXlXrX5XZ./.k L.<X1XQ.$X@X$ 3 j 2 @Xj m.zXvXm             +   O                   DXDXDXVXFXFX",
"5 oX  FXCXBXVXBXVXVXxXX X -XjXkXN bXrX4X/.E.Z.2X5X2X>XI.~.,X,X:X1Xt > N c.0XvX.     . @     +                       VXVXBXBXvXvX",
" XN OXJXFXCXCXVXVXVXVX  X dX7XnXj o lX5XZ.[ 3X3X2XT.E.T.h.h.T.A.^.>X<X% k qXcXb.w o                               X BXBXvXlXlXlX",
"M -X XKXAXVXDXAXJXJXFX  X *XjX6X.X;XqX4X3.Z.3X2XT.u.4.t.r.0.q.h.H.H.4X4X;Xn.;XBX%     +   O                         VXvXkXnXwXrX",
"          o               X X .Xc.).J.[ $ qX3X(.h.t.0.q.7.7.r.t.6.T.).qXlX% n.cXVXKXKXHXLXJXKXJXKXJXKXKXKXKXKXKXJXKXAXKXJXJXSXDX",
"                    X     X o ;X5XZ.Z.i L.rX5X3XD.5.d.p.0.6.0.7.r.w.x.3XqX. -.. FXJXHXKXKXJXGXKXKXKXKXKXKXKXKXKXLXLXLXLXLXLXKXKX",
"                    X       % 1XL.5X1X; m.qXrX1XY.U.V.a.p.0.t.| r.t.u.R.3XQ.o |.FXHXKXKXKXJXKXKXKXLXKXKXLXLXKXKXKXKXKXJXKXKXJXJX",
"  .             .     +   . 2 1XZ.2 ;X. ^.4X$ % > K.P.G.a.p.9.0.0.f.z.x.).Q.. %XVXJXJXJXAXKXLXKXLXKXKXKXKXKXKXKXKXKXJXJXJXJXJXJX",
"                    O O   . i 1X3.!.Y.# 5X5X!.M.< > < C.F.F.a.S.A.H.^.2X3X4X. . CXVXFXFXFXDXKXJXKXGXLXKXLXKXJXKXJXKXKXKXJXJXJXJX",
"                        O . f I.3.A.Y.> 5XE.J.Z.L.Y.:XM.P.o.P.o.p , Z.0X<XqX$ # 8XVXVXFXFXDXSXSXJXKX      KXKXKXJXKXJXKXJXJXJXJX",
"                .   O     . 1X< t i.C.t 4X!.t ~.< p i.s.V.I.K.] p > : # $ n.# w jXFXJXGXKXKXSXHXKXSX      KXKXFXJXKXKXKXJXLXLXJX",
"O               @   O     2 @XQ.L.Z.A S 2XJ.J.U.#XU.F.@.s.U.O.P.M.L.9X9X9X$ $ 6 a AXKXGXKXKXKXSXKXKX      JXJXKXKXJXKXKXKXJXLXJX",
"                .       . # 3 L.M.4X] } (.x.d.8.I.G.o.G.P.P.O.K.1 : $ ;XbX> p p a bXAXJXGXPXLXLXJXKXJXLXJXAXKXJXKXKXKXKXKXKXLXLX",
"O                         . # ;Xj $ 0Xj.x.w.0.t.g.8.!.I.P.V.V.P.,X$X:X<XeX, @Xp i # FXJXIXLXLXLXKXKXKXJXJXKXKXKXKXKXKXKXKXKXKXKX",
"                            . # % % $ /.R.u.4.d.p.p.g.g.G.V.B.V.F.I.I.4XeX@X@X: ;.. AXJXJXKXLXHXKXKXJXKXJXKXKXKXKXKXKXKXKXKXKXKX",
"                            @ . o . n.# R.j.t.0.8.H.g.8.o.I.@.S.@.a.G.>XM.L.: %Xa . FXxXJXLXHXKXKXKXJXKXFXKXKXGXKXKXKXKXKXKXLXLX",
"    O               X     O   5 h N 6 $ ^.x.x.6. . . .#.B.B.a.a.0.T.j.>X~.L.p %Xi   VXVXJXJXLXGXKXKXJXKXKXKXKXKXKXKXKXKXKXKXKXKX",
"    @ O             X   + O O M # % j $ J.(.x.r.0.#.+.s.V.@.@. .0.h.H.>X:X$ p 3 ;.dXVXFXFXGXLXLXw AXKXPXJXLX XLXKXKXKXKXKXKXKXLX",
"      @               X   O O . b.p i > 2X_.y.7.p.N.>.K.>.>.a.a.d.p.~.rX. M n.# AXDXJXFXSXJXJXAXFXLXLXKXSXKXKXKXKXKXKXKXKXLXGXPX",
"                              . i : ;.$ 2XW.z.e.| ~ D D ~ D a.a.8.H.>X$ . . AXAXLXLXKXFXKXJXSXJXLXLXKXKXKXGXLXKXKXKXKXKXKXKXLXLX",
"                O O           . $ 6 a . 3XW.z.e.0.{ $.~ ~ >.p.d.h.!.Q.# C KXDXJXLXGXHXLXKXKXLXLXLXLXLXLXKXKXLXKXKXKXKXKXKXKXKXKX",
"                O               @ #   i (.x.x.l.7.9.#.{ $.a.p.} E.).lXnXKXKXKXKXLXKXLXLXLXLXLXLXLXLXLXLXKXKXJXKXKXKXKXKXKXLXKXJX",
"            @ .   X         O O gXM X ;X_.z.w.l.e.0. .#.@.p.e.h.I.rXBXSXJXKXLXLXKXHXJXHXKXKXKXKXLXLXLXLXAXJXJXJXKXKXKXKXKXJXJXJX",
"          @ @     X X   O O gX4 # # % qXx.l.y.4.e.r.a.B.a.d.t.j.:XvXVXHXJXJXLXLXJXJXJXKXHXKXKXSXJXKXGXGXKXGXFXJXKXHXHXKXKXLXKXKX",
"      + O O   O + + [.sXZXZXc : 1.[ J.3Xz.w.y.y.7.6.0. .@.5.j.>X9XVXJXHXKXKXLXAXJXAXKXKXLXLXLXJXAXJXKXHXLXLXKXKXHXKXKXLXLXLXKXKX",
"X   O & OXpX7 X pXaXsXaX[.OX# p ] g.x.W.y.w.e.e.z.t.d.p.g.H.H.U.$ . NXKXHXKXJXJXJXJXLXLXLXGXJXFXSXKXLXLXLXKXLXKXKXHXHXKXLXKXHXHX",
"HXZXiXaXtXn n [.{.b tXtXC @ 3 eXi.8.R.W.y.e.7.d.6.t.d.g.@.S.!.<X. C   m JXSXKXGXGXKXKXHXKXKXJXAXKXKXHXHXKXKXJXJXHXKXKXJXJXAXDXSX",
"pXUXsXaX{.iXq V v [.b b w : ,X,X~ S.h.q.f.d.g.8.d.a.a.a.S.S.A.>X#   d X m SXGXLXGXHXHXHXKXLXJXJXPXNXKXKXFXFXJXHXKXHXKX. CXCXSXjX",
"tXV q l [.b v v l 8 z V , &X<.F ^ ..#.p.a.a.F.G.S.s.G.B.B.D.T.>X#   w   o   e KXZXHXHXKXKXKXHXKXJXFXJXJXJXJXLXKXHXKXAXAXDXSXSXHX",
"& z V q 0 8 `.0 z l 8 @ 1 Z F R U Y D ~ +.N.N.V.P.V.C.V.G.H.D.I.@X  @     v B & z XX+ +XHXHXKXC xXDXSX}.FXLXJXNXHXKXAXFXAXAXKXKX",
"7 8 w V   9 7 0 q 7 & # :.'.E J U ! Y Y Z D >.N.>.K.K.V.N.B.u A.f # .       e l tXtXXXv `.}.HX  JXJXLXGXLXKXLXfXKXJX. b.;.M AXGX",
"O     9 - v q 7 8 m w $ '.<.E P L J L T H Y ^ Z Z S %.$.Z +.>.V.zX: #   . . z 7 b v l `.`.& HXNXGXNXLXJXLXLXKXfXLXKXJX6 6 @ AXMX",
"    X X w 9 + X 7   X : ,.( E P L L K K T H H H H E G F Y Y G F #.:X$ .   o * B l * q l l & X HXLXGXGXKXw NXKXPXLXGXGXGXGXGXGX+X",
"  +     w r = = X X X : <.E H P K K I K U H T L K J W I L U P Y +.s.<XcX#   X 9 & z q l 8 x   JXLXLXLXJXDXDXJXAXLX- GXJXGXGXMX].",
"+     @ X X X 0     X : <.) P J K P P K J L L K K K P P L L K H D B.H.J.lX.     9 v q q v 0   5 PXKXFXSXJXFXSXDXC  X8XkXVXAXs uX",
"  O O O X * = = 9 +   : ` E W L K P J K I I J P L L P J J K U Y D y I.E.:Xn.. . O 7 B + & 7 o   ;.C -   g dXDXo . o VXBXBXGXs yX",
"        @   + X     O < <.E P L ! K K K W J P K K L U X.X.R F F Y D 1 @X,X$X, @     = 0 O & O O GXLXJXJXFXDXSXKXLXKXSXFXLXGXyXyX",
"      O   O X ; O O O > =.) J J K L K J P P I L K L H R H Y +.P.{ A > : Y.J.<XzX.   X - - & O O w LXJXFXVXFXDXJXJXAXDXJXLXGXyXyX",
"M - X }.w   9 w ;   o : / Q J ! K K K W I K K P K K J U U R +.+.$.~.< > #XS.A.H.lX#   X * O O O O KXVX7XjXwX2 hX7X% , 8X%X< MXyX",
"X     O     w e o     > / Q ! K K K K K K W K K K ! K J U R G +. .@.P.Y.i.S.d.S.i.rX.     O O O w   bX6XkXnXkX.XnXcXnX7XhXhXMXMX",
"  X           w X     > _ Q Q K K K K J K I P J K K K I J R Y Y R ..K.V.d.} 6.} j.2XwX  .       O   CXvXCXxXVXCXbX8XvXCXbX6XLXMX",
"          X     m     > _ ) P K K K L L L J K P W K K K ! L R U R F A  .0.0.g.g.4.j.4Xc.. .     O + X SXCXSXxXFXCXVXxXBXxXbXLXMX",
"                X o   > *.Q P I K L L I J K J P P P P K J K T H R +.D.p.| | | | 0.q.x.(.rXo X X   = * HXZXSXLXGXSXAXVXCXjXVXLXGX",
"          @           > / Q P I K K K J J J L K K P P W K K K U Y ~ 6.f.} | | | t.y.w.z.(.rXX X X + 9 v X   4 ; e   .   X X PXGX",
"+             X       > *.Q P J K L I J L U L K P K P K K P J J Y { y t.t.h.9.0.7.7.y.q.u.).qX.     7 v 0 & % . X   @ . 4   AXAX",
"            O         > _ ) W J P I K L J L K L I P K K ! P P K R ..G.h.q.0.d.s.p.p.7.e.w.u.(.qX#   X 9 8 & @   X   O .     . AX",
"                X     > _ Q P K P P K L L I J K L K K K J L I K K H +.a.p.5.A.F.P.S.G.p.e.w.f.W.5Xo o + w w @     O O         JX",
"                      > _ Q P K W K K K L J U L K K I T L K L I K T D N.H.I.U.#X#X#XF.D.q.t.w.z.R.5X. . m e .     +   O     IXKX",
"                      > / Q P J P K W J K K L L J J J L K K K K K E ` y 1.@X:X,X,X#X,X~.J.h.t.u.k.R.4X@X# O   }.X X         @ IX",
"                      > / Q Q I P J K L L J K L L I K L U T L L K E ` t 1 $ 3 $X9XeX9X9X>X!.h.0.l.f.~.[ $ C m     X X     w @ GX",
"                      > / Q W P J P K K L I L K K L K K K L J L U E &.1 , @ # # . % # 9X9X<X>XD.f.f.!.p -.c   + x       CXVXGXGX",
"                      > / Q P K I K K K L K K K K L K W P K J L U E =.y @ &         . . # 1XY.!.D.h.!.1.%X. O O       CXVX  . KX",
"                      < / Q P K L K L K K K K K P K K I W K K L K E =.'.$ . .     @       # 9X#XH.!.C.,X: @ m * & O   VX8Xg PXKX",
"                      < ( Q Q I K J K W K L K P K P K K K K K K K Q =.=.: . @             . ,X<X>X!.i.Y.$ @ & & x -   . BXFXKXHX"
};
